<svg width="223" height="223" viewBox="0 0 223 223" fill="none" xmlns="http://www.w3.org/2000/svg">
<g clip-path="url(#clip0_170_233)">
<path d="M222.082 51.6778C221.172 48.9778 214.242 41.1578 211.202 40.1678C205.992 38.4778 204.142 40.6678 200.232 40.7678C194.442 40.9078 186.582 38.4378 179.472 38.8978C162.912 39.9578 146.382 44.6778 130.182 47.0178C105.962 50.5178 78.9316 53.4078 54.4916 54.8178C47.6816 55.2078 32.4916 56.4378 26.5116 55.6178C24.4616 55.3378 22.3516 52.0778 19.9016 51.4778C12.0516 49.5278 -0.248376 57.9778 0.011624 66.1778C0.271624 74.3678 4.79162 74.1978 5.75162 77.5478C6.98162 81.8878 5.83162 93.2878 6.63162 98.5778C12.6716 138.158 50.7916 185.788 94.2016 183.468C123.082 181.918 178.512 154.718 198.052 133.158C220.712 108.158 217.752 88.5678 221.882 58.2578C222.162 56.1878 222.742 53.6678 222.072 51.6678L222.082 51.6778ZM184.092 113.018C183.472 111.318 182.802 109.538 182.082 107.658C174.512 87.7978 162.032 75.6378 148.702 75.1378C132.362 74.5478 122.072 91.0678 117.412 100.988C116.222 103.508 115.002 106.718 113.702 110.108C110.592 118.258 105.882 130.558 100.822 133.418C96.6116 135.798 93.4916 133.728 86.2616 126.318C83.8116 123.808 81.2716 121.208 78.5516 119.418C74.0416 116.448 68.4616 117.068 64.6616 120.968C60.8816 124.838 60.3116 130.528 63.2716 134.798C65.4716 137.968 72.9816 144.378 74.4716 145.628C82.8016 152.658 90.8616 156.208 98.5116 156.208C100.352 156.208 102.162 155.998 103.952 155.588C114.232 153.228 122.912 144.238 129.752 128.858C130.682 126.758 131.682 124.138 132.742 121.358C135.642 113.748 141.662 97.8978 147.232 97.1178C149.352 96.8178 152.522 99.2478 155.922 103.788C160.452 109.828 162.732 117.728 165.132 126.098C165.472 127.258 165.802 128.438 166.152 129.618C153.942 138.398 139.512 145.318 125.402 151.228C96.4216 163.358 75.4716 166.568 53.4316 141.178C38.8716 124.398 27.6916 101.428 28.1016 78.8378C56.9516 77.3478 85.6816 74.7278 114.472 71.4378C116.822 71.1678 119.132 71.8178 121.472 71.5278C146.722 68.3678 170.842 59.2378 196.482 62.7678C200.072 83.6878 194.572 99.9778 184.072 113.048L184.092 113.018Z" fill="#7731D4"/>
</g>
<defs>
<clipPath id="clip0_170_233">
<rect width="222.39" height="222.39" fill="white"/>
</clipPath>
</defs>
</svg>
